<?xml version="1.0" encoding="UTF-8"?>
<svg xmlns="http://www.w3.org/2000/svg" style="display:none" aria-hidden="true">
  <symbol id="nav-toggle" viewBox="0 0 24 24" fill="none" stroke="currentColor" stroke-width="2" stroke-linecap="round" stroke-linejoin="round">
    <path d="M4 5h16" />
    <path d="M4 12h16" />
    <path d="M4 19h16" />
  </symbol>
  <symbol id="theme-light" viewBox="0 0 24 24" fill="none" stroke="currentColor" stroke-width="2" stroke-linecap="round" stroke-linejoin="round">
    <circle cx="12" cy="12" r="4" />
    <path d="M12 2v2" />
    <path d="M12 20v2" />
    <path d="m4.93 4.93 1.41 1.41" />
    <path d="m17.66 17.66 1.41 1.41" />
    <path d="M2 12h2" />
    <path d="M20 12h2" />
    <path d="m6.34 17.66-1.41 1.41" />
    <path d="m19.07 4.93-1.41 1.41" />
  </symbol>
  <symbol id="theme-dark" viewBox="0 0 24 24" fill="none" stroke="currentColor" stroke-width="2" stroke-linecap="round" stroke-linejoin="round">
    <path d="M20.985 12.486a9 9 0 1 1-9.473-9.472c.405-.022.617.46.402.803a6 6 0 0 0 8.268 8.268c.344-.215.825-.004.803.401" />
  </symbol>
  <symbol id="metric-treasury" viewBox="0 0 24 24" fill="none" stroke="currentColor" stroke-width="2" stroke-linecap="round" stroke-linejoin="round">
    <path d="M10 18v-7" />
    <path d="M11.12 2.198a2 2 0 0 1 1.76.006l7.866 3.847c.476.233.31.949-.22.949H3.474c-.53 0-.695-.716-.22-.949z" />
    <path d="M14 18v-7" />
    <path d="M18 18v-7" />
    <path d="M3 22h18" />
    <path d="M6 18v-7" />
  </symbol>
  <symbol id="metric-payments" viewBox="0 0 24 24" fill="none" stroke="currentColor" stroke-width="2" stroke-linecap="round" stroke-linejoin="round">
    <rect width="20" height="14" x="2" y="5" rx="2" />
    <line x1="2" x2="22" y1="10" y2="10" />
  </symbol>
  <symbol id="metric-reconciliation" viewBox="0 0 24 24" fill="none" stroke="currentColor" stroke-width="2" stroke-linecap="round" stroke-linejoin="round">
    <circle cx="12" cy="12" r="10" />
    <path d="m9 12 2 2 4-4" />
  </symbol>
  <symbol id="metric-alert" viewBox="0 0 24 24" fill="none" stroke="currentColor" stroke-width="2" stroke-linecap="round" stroke-linejoin="round">
    <path d="m21.73 18-8-14a2 2 0 0 0-3.48 0l-8 14A2 2 0 0 0 4 21h16a2 2 0 0 0 1.73-3" />
    <path d="M12 9v4" />
    <path d="M12 17h.01" />
  </symbol>
</svg>
